<?xml version="1.0" encoding="UTF-8" standalone="no"?>
<svg width="8px" height="8px" viewBox="0 0 8 8" version="1.1" xmlns="http://www.w3.org/2000/svg" xmlns:xlink="http://www.w3.org/1999/xlink" xmlns:sketch="http://www.bohemiancoding.com/sketch/ns">
    <!-- Generator: Sketch 3.5.2 (25235) - http://www.bohemiancoding.com/sketch -->
    <title>icon_pause</title>
    <desc>Created with Sketch.</desc>
    <defs></defs>
    <g id="Welcome" stroke="none" stroke-width="1" fill="none" fill-rule="evenodd" sketch:type="MSPage">
        <g id="Temp" sketch:type="MSArtboardGroup" transform="translate(-29.000000, -446.000000)" fill="#FFFFFF">
            <g id="Header-Copy" sketch:type="MSLayerGroup" transform="translate(0.000000, 422.000000)">
                <g id="Add-Button" transform="translate(15.000000, 13.000000)" sketch:type="MSShapeGroup">
                    <g id="Group" transform="translate(9.000000, 6.000000)">
                        <path d="M13,5.33333333 L13,12.6666667 C13,12.7569449 12.9670142,12.8350691 12.9010417,12.9010417 C12.8350691,12.9670142 12.7569449,13 12.6666667,13 L10,13 C9.90972177,13 9.83159755,12.9670142 9.765625,12.9010417 C9.69965245,12.8350691 9.66666667,12.7569449 9.66666667,12.6666667 L9.66666667,5.33333333 C9.66666667,5.2430551 9.69965245,5.16493089 9.765625,5.09895833 C9.83159755,5.03298578 9.90972177,5 10,5 L12.6666667,5 C12.7569449,5 12.8350691,5.03298578 12.9010417,5.09895833 C12.9670142,5.16493089 13,5.2430551 13,5.33333333 L13,5.33333333 Z M8.33333333,5.33333333 L8.33333333,12.6666667 C8.33333333,12.7569449 8.30034755,12.8350691 8.234375,12.9010417 C8.16840245,12.9670142 8.09027823,13 8,13 L5.33333333,13 C5.2430551,13 5.16493089,12.9670142 5.09895833,12.9010417 C5.03298578,12.8350691 5,12.7569449 5,12.6666667 L5,5.33333333 C5,5.2430551 5.03298578,5.16493089 5.09895833,5.09895833 C5.16493089,5.03298578 5.2430551,5 5.33333333,5 L8,5 C8.09027823,5 8.16840245,5.03298578 8.234375,5.09895833 C8.30034755,5.16493089 8.33333333,5.2430551 8.33333333,5.33333333 L8.33333333,5.33333333 Z" id="icon_pause"></path>
                    </g>
                </g>
            </g>
        </g>
    </g>
</svg>