<?xml version="1.0" encoding="UTF-8" standalone="no"?>
<svg width="9px" height="9px" viewBox="0 0 9 9" version="1.1" xmlns="http://www.w3.org/2000/svg" xmlns:xlink="http://www.w3.org/1999/xlink" xmlns:sketch="http://www.bohemiancoding.com/sketch/ns">
    <!-- Generator: Sketch 3.5.2 (25235) - http://www.bohemiancoding.com/sketch -->
    <title>icon-download</title>
    <desc>Created with Sketch.</desc>
    <defs></defs>
    <g id="Welcome" stroke="none" stroke-width="1" fill="none" fill-rule="evenodd" sketch:type="MSPage">
        <g id="Desktop" sketch:type="MSArtboardGroup" transform="translate(-93.000000, -130.000000)" fill="#17A65D">
            <g id="Group-5" sketch:type="MSLayerGroup" transform="translate(0.000000, 103.000000)">
                <g id="Group-2" transform="translate(44.000000, 25.000000)" sketch:type="MSShapeGroup">
                    <path d="M57.2591715,6.875 C57.2591715,6.96875047 57.2201094,7.06249953 57.141984,7.15625 L53.4037027,10.8945312 C53.3177648,10.9648441 53.2279219,11 53.1341715,11 C53.040421,11 52.9505782,10.9648441 52.8646402,10.8945312 L49.1146402,7.14453125 C48.9974521,7.01953062 48.9701087,6.88281324 49.032609,6.734375 C49.0951093,6.57812422 49.2122956,6.5 49.3841715,6.5 L51.6341715,6.5 L51.6341715,2.375 C51.6341715,2.26562445 51.6693274,2.1757816 51.7396402,2.10546875 C51.8099531,2.0351559 51.8997959,2 52.0091715,2 L54.2591715,2 C54.368547,2 54.4583899,2.0351559 54.5287027,2.10546875 C54.5990156,2.1757816 54.6341715,2.26562445 54.6341715,2.375 L54.6341715,6.5 L56.8841715,6.5 C56.993547,6.5 57.0833899,6.5351559 57.1537027,6.60546875 C57.2240156,6.6757816 57.2591715,6.76562445 57.2591715,6.875 L57.2591715,6.875 Z" id="icon-download"></path>
                </g>
            </g>
        </g>
    </g>
</svg>