<?xml version="1.0" encoding="UTF-8" standalone="no"?>
<svg width="12px" height="12px" viewBox="0 0 12 12" version="1.1" xmlns="http://www.w3.org/2000/svg" xmlns:xlink="http://www.w3.org/1999/xlink">
    <!-- Generator: Sketch 3.6.1 (26313) - http://www.bohemiancoding.com/sketch -->
    <title>icon-disconnect</title>
    <desc>Created with Sketch.</desc>
    <defs></defs>
    <g id="Welcome" stroke="none" stroke-width="1" fill="none" fill-rule="evenodd">
        <g id="Normal" transform="translate(-343.000000, -525.000000)" fill="#979797">
            <path d="M346.165865,534.165865 L344.319712,536.012019 C344.271634,536.055289 344.216346,536.076923 344.153846,536.076923 C344.096154,536.076923 344.040866,536.055289 343.987981,536.012019 C343.944711,535.963942 343.923077,535.908654 343.923077,535.846154 C343.923077,535.783654 343.944711,535.728366 343.987981,535.680288 L345.834135,533.834135 C345.882212,533.790865 345.9375,533.769231 346,533.769231 C346.0625,533.769231 346.117788,533.790865 346.165865,533.834135 C346.209135,533.882212 346.230769,533.9375 346.230769,534 C346.230769,534.0625 346.209135,534.117788 346.165865,534.165865 Z M347.384615,534.461538 L347.384615,536.769231 C347.384615,536.836539 347.362981,536.891827 347.319712,536.935096 C347.276442,536.978366 347.221154,537 347.153846,537 C347.086538,537 347.03125,536.978366 346.987981,536.935096 C346.944711,536.891827 346.923077,536.836539 346.923077,536.769231 L346.923077,534.461538 C346.923077,534.39423 346.944711,534.338943 346.987981,534.295673 C347.03125,534.252404 347.086538,534.230769 347.153846,534.230769 C347.221154,534.230769 347.276442,534.252404 347.319712,534.295673 C347.362981,534.338943 347.384615,534.39423 347.384615,534.461538 Z M345.769231,532.846154 C345.769231,532.913462 345.747596,532.96875 345.704327,533.012019 C345.661057,533.055289 345.60577,533.076923 345.538462,533.076923 L343.230769,533.076923 C343.163461,533.076923 343.108173,533.055289 343.064904,533.012019 C343.021634,532.96875 343,532.913462 343,532.846154 C343,532.778846 343.021634,532.723558 343.064904,532.680288 C343.108173,532.637019 343.163461,532.615385 343.230769,532.615385 L345.538462,532.615385 C345.60577,532.615385 345.661057,532.637019 345.704327,532.680288 C345.747596,532.723558 345.769231,532.778846 345.769231,532.846154 Z M354.884615,533.769231 C354.884615,534.346157 354.680291,534.834133 354.271635,535.233173 L353.211538,536.286058 C352.812498,536.685098 352.324522,536.884615 351.747596,536.884615 C351.165862,536.884615 350.675483,536.680291 350.276442,536.271635 L347.867788,533.855769 C347.766826,533.754807 347.665866,533.620193 347.564904,533.451923 L349.288462,533.322115 L351.257212,535.298077 C351.38702,535.427885 351.55048,535.49399 351.747596,535.496394 C351.944713,535.498798 352.108172,535.435097 352.237981,535.305288 L353.298077,534.252404 C353.432693,534.117788 353.5,533.956732 353.5,533.769231 C353.5,533.576922 353.432693,533.413462 353.298077,533.278846 L351.322115,531.295673 L351.451923,529.572115 C351.620193,529.673077 351.754807,529.774038 351.855769,529.875 L354.278846,532.298077 C354.682694,532.711541 354.884615,533.20192 354.884615,533.769231 Z M350.435096,528.548077 L348.711538,528.677885 L346.742788,526.701923 C346.608172,526.567307 346.444712,526.5 346.252404,526.5 C346.064903,526.5 345.901443,526.564903 345.762019,526.694712 L344.701923,527.747596 C344.567307,527.882212 344.5,528.043268 344.5,528.230769 C344.5,528.423078 344.567307,528.586538 344.701923,528.721154 L346.677885,530.697115 L346.548077,532.427885 C346.379807,532.326923 346.245193,532.225962 346.144231,532.125 L343.721154,529.701923 C343.317306,529.288459 343.115385,528.79808 343.115385,528.230769 C343.115385,527.653843 343.319709,527.165867 343.728365,526.766827 L344.788462,525.713942 C345.187502,525.314902 345.675478,525.115385 346.252404,525.115385 C346.834138,525.115385 347.324517,525.319709 347.723558,525.728365 L350.132212,528.144231 C350.233174,528.245193 350.334134,528.379807 350.435096,528.548077 Z M355,529.153846 C355,529.221154 354.978366,529.276442 354.935096,529.319712 C354.891827,529.362981 354.836539,529.384615 354.769231,529.384615 L352.461538,529.384615 C352.39423,529.384615 352.338943,529.362981 352.295673,529.319712 C352.252404,529.276442 352.230769,529.221154 352.230769,529.153846 C352.230769,529.086538 352.252404,529.03125 352.295673,528.987981 C352.338943,528.944711 352.39423,528.923077 352.461538,528.923077 L354.769231,528.923077 C354.836539,528.923077 354.891827,528.944711 354.935096,528.987981 C354.978366,529.03125 355,529.086538 355,529.153846 Z M351.076923,525.230769 L351.076923,527.538462 C351.076923,527.60577 351.055289,527.661057 351.012019,527.704327 C350.96875,527.747596 350.913462,527.769231 350.846154,527.769231 C350.778846,527.769231 350.723558,527.747596 350.680288,527.704327 C350.637019,527.661057 350.615385,527.60577 350.615385,527.538462 L350.615385,525.230769 C350.615385,525.163461 350.637019,525.108173 350.680288,525.064904 C350.723558,525.021634 350.778846,525 350.846154,525 C350.913462,525 350.96875,525.021634 351.012019,525.064904 C351.055289,525.108173 351.076923,525.163461 351.076923,525.230769 Z M354.012019,526.319712 L352.165865,528.165865 C352.112981,528.209135 352.057693,528.230769 352,528.230769 C351.942307,528.230769 351.887019,528.209135 351.834135,528.165865 C351.790865,528.117788 351.769231,528.0625 351.769231,528 C351.769231,527.9375 351.790865,527.882212 351.834135,527.834135 L353.680288,525.987981 C353.728366,525.944711 353.783654,525.923077 353.846154,525.923077 C353.908654,525.923077 353.963942,525.944711 354.012019,525.987981 C354.055289,526.036058 354.076923,526.091346 354.076923,526.153846 C354.076923,526.216346 354.055289,526.271634 354.012019,526.319712 Z" id="icon-disconnect"></path>
        </g>
    </g>
</svg>