<?xml version="1.0" encoding="UTF-8" standalone="no"?>
<svg width="9px" height="9px" viewBox="0 0 9 9" version="1.1" xmlns="http://www.w3.org/2000/svg" xmlns:xlink="http://www.w3.org/1999/xlink" xmlns:sketch="http://www.bohemiancoding.com/sketch/ns">
    <!-- Generator: Sketch 3.5.2 (25235) - http://www.bohemiancoding.com/sketch -->
    <title>icon-upload</title>
    <desc>Created with Sketch.</desc>
    <defs></defs>
    <g id="Welcome" stroke="none" stroke-width="1" fill="none" fill-rule="evenodd" sketch:type="MSPage">
        <g id="Desktop" sketch:type="MSArtboardGroup" transform="translate(-163.000000, -130.000000)" fill="#17A65D">
            <g id="Group-5" sketch:type="MSLayerGroup" transform="translate(0.000000, 103.000000)">
                <g id="Group-2" transform="translate(44.000000, 25.000000)" sketch:type="MSShapeGroup">
                    <path d="M127.259171,6.875 C127.259171,6.96875047 127.220109,7.06249953 127.141984,7.15625 L123.403703,10.8945312 C123.317765,10.9648441 123.227922,11 123.134171,11 C123.040421,11 122.950578,10.9648441 122.86464,10.8945312 L119.11464,7.14453125 C118.997452,7.01953062 118.970109,6.88281324 119.032609,6.734375 C119.095109,6.57812422 119.212296,6.5 119.384171,6.5 L121.634171,6.5 L121.634171,2.375 C121.634171,2.26562445 121.669327,2.1757816 121.73964,2.10546875 C121.809953,2.0351559 121.899796,2 122.009171,2 L124.259171,2 C124.368547,2 124.45839,2.0351559 124.528703,2.10546875 C124.599016,2.1757816 124.634171,2.26562445 124.634171,2.375 L124.634171,6.5 L126.884171,6.5 C126.993547,6.5 127.08339,6.5351559 127.153703,6.60546875 C127.224016,6.6757816 127.259171,6.76562445 127.259171,6.875 L127.259171,6.875 Z" id="icon-upload" transform="translate(123.129586, 6.500000) rotate(-180.000000) translate(-123.129586, -6.500000) "></path>
                </g>
            </g>
        </g>
    </g>
</svg>