<?xml version="1.0" encoding="UTF-8" standalone="no"?>
<svg width="8px" height="10px" viewBox="0 0 8 10" version="1.1" xmlns="http://www.w3.org/2000/svg" xmlns:xlink="http://www.w3.org/1999/xlink">
    <!-- Generator: Sketch 3.6.1 (26313) - http://www.bohemiancoding.com/sketch -->
    <title>lock_hover</title>
    <desc>Created with Sketch.</desc>
    <defs></defs>
    <g id="Welcome" stroke="none" stroke-width="1" fill="none" fill-rule="evenodd">
        <g id="Login" transform="translate(-828.000000, -254.000000)" fill="#37B963">
            <g id="Group-8-Copy" transform="translate(798.000000, 168.000000)">
                <g id="input-single-line-copy" transform="translate(20.000000, 76.000000)">
                    <path d="M12.2222222,14.4444444 L15.7777778,14.4444444 L15.7777778,13.1111111 C15.7777778,12.6203679 15.6041684,12.2013906 15.2569444,11.8541667 C14.9097205,11.5069427 14.4907432,11.3333333 14,11.3333333 C13.5092568,11.3333333 13.0902795,11.5069427 12.7430556,11.8541667 C12.3958316,12.2013906 12.2222222,12.6203679 12.2222222,13.1111111 L12.2222222,14.4444444 Z M18,15.1111111 L18,19.1111111 C18,19.2962972 17.9351858,19.4537031 17.8055556,19.5833333 C17.6759253,19.7129636 17.5185194,19.7777778 17.3333333,19.7777778 L10.6666667,19.7777778 C10.4814806,19.7777778 10.3240747,19.7129636 10.1944444,19.5833333 C10.0648142,19.4537031 10,19.2962972 10,19.1111111 L10,15.1111111 C10,14.925925 10.0648142,14.7685192 10.1944444,14.6388889 C10.3240747,14.5092586 10.4814806,14.4444444 10.6666667,14.4444444 L10.8888889,14.4444444 L10.8888889,13.1111111 C10.8888889,12.259255 11.1944414,11.5277808 11.8055556,10.9166667 C12.4166697,10.3055525 13.1481439,10 14,10 C14.8518561,10 15.5833303,10.3055525 16.1944444,10.9166667 C16.8055586,11.5277808 17.1111111,12.259255 17.1111111,13.1111111 L17.1111111,14.4444444 L17.3333333,14.4444444 C17.5185194,14.4444444 17.6759253,14.5092586 17.8055556,14.6388889 C17.9351858,14.7685192 18,14.925925 18,15.1111111 L18,15.1111111 Z" id="lock_hover"></path>
                </g>
            </g>
        </g>
    </g>
</svg>