<?xml version="1.0" encoding="UTF-8" standalone="no"?>
<svg width="12px" height="12px" viewBox="0 0 12 12" version="1.1" xmlns="http://www.w3.org/2000/svg" xmlns:xlink="http://www.w3.org/1999/xlink">
    <!-- Generator: Sketch 3.6.1 (26313) - http://www.bohemiancoding.com/sketch -->
    <title>icon-config</title>
    <desc>Created with Sketch.</desc>
    <defs></defs>
    <g id="Welcome" stroke="none" stroke-width="1" fill="none" fill-rule="evenodd">
        <g id="Normal" transform="translate(-316.000000, -526.000000)" fill="#17A65D">
            <path d="M328,532.882812 C328,532.945313 327.979167,533.005208 327.9375,533.0625 C327.895833,533.119792 327.84375,533.153646 327.78125,533.164062 L326.335938,533.382812 C326.236979,533.664064 326.135417,533.901041 326.03125,534.09375 C326.213543,534.354168 326.492186,534.713539 326.867188,535.171875 C326.919271,535.234375 326.945312,535.299479 326.945312,535.367188 C326.945312,535.434896 326.921875,535.494791 326.875,535.546875 C326.734374,535.739584 326.476564,536.020831 326.101562,536.390625 C325.726561,536.760419 325.481771,536.945312 325.367188,536.945312 C325.304687,536.945312 325.23698,536.921875 325.164062,536.875 L324.085938,536.03125 C323.85677,536.151042 323.619793,536.25 323.375,536.328125 C323.291666,537.036462 323.216146,537.520832 323.148438,537.78125 C323.111979,537.927084 323.01823,538 322.867188,538 L321.132812,538 C321.059895,538 320.996094,537.977865 320.941406,537.933594 C320.886718,537.889323 320.856771,537.833334 320.851562,537.765625 L320.632812,536.328125 C320.377603,536.244791 320.14323,536.148438 319.929688,536.039062 L318.828125,536.875 C318.776041,536.921875 318.710938,536.945312 318.632812,536.945312 C318.559895,536.945312 318.494792,536.916667 318.4375,536.859375 C317.781247,536.265622 317.351564,535.828126 317.148438,535.546875 C317.111979,535.494791 317.09375,535.434896 317.09375,535.367188 C317.09375,535.304687 317.114583,535.244792 317.15625,535.1875 C317.234375,535.078124 317.367187,534.904949 317.554688,534.667969 C317.742188,534.430988 317.882812,534.247396 317.976562,534.117188 C317.835937,533.85677 317.729167,533.59896 317.65625,533.34375 L316.226562,533.132812 C316.158854,533.122396 316.104167,533.089844 316.0625,533.035156 C316.020833,532.980468 316,532.919271 316,532.851562 L316,531.117188 C316,531.054687 316.020833,530.994792 316.0625,530.9375 C316.104167,530.880208 316.153646,530.846354 316.210938,530.835938 L317.664062,530.617188 C317.73698,530.377603 317.838541,530.138022 317.96875,529.898438 C317.760416,529.601561 317.481773,529.24219 317.132812,528.820312 C317.080729,528.757812 317.054688,528.695313 317.054688,528.632812 C317.054688,528.580729 317.078125,528.520834 317.125,528.453125 C317.260417,528.265624 317.516925,527.985679 317.894531,527.613281 C318.272137,527.240884 318.518229,527.054688 318.632812,527.054688 C318.700521,527.054688 318.768229,527.080729 318.835938,527.132812 L319.914062,527.96875 C320.14323,527.848958 320.380207,527.75 320.625,527.671875 C320.708334,526.963538 320.783854,526.479168 320.851562,526.21875 C320.888021,526.072916 320.98177,526 321.132812,526 L322.867188,526 C322.940105,526 323.003906,526.022135 323.058594,526.066406 C323.113282,526.110677 323.143229,526.166666 323.148438,526.234375 L323.367188,527.671875 C323.622397,527.755209 323.85677,527.851562 324.070312,527.960938 L325.179688,527.125 C325.226563,527.078125 325.289062,527.054688 325.367188,527.054688 C325.434896,527.054688 325.5,527.080729 325.5625,527.132812 C326.234378,527.752607 326.664062,528.195311 326.851562,528.460938 C326.888021,528.502604 326.90625,528.559895 326.90625,528.632812 C326.90625,528.695313 326.885417,528.755208 326.84375,528.8125 C326.765625,528.921876 326.632813,529.095051 326.445312,529.332031 C326.257812,529.569012 326.117188,529.752604 326.023438,529.882812 C326.158855,530.14323 326.265625,530.398436 326.34375,530.648438 L327.773438,530.867188 C327.841146,530.877604 327.895833,530.910156 327.9375,530.964844 C327.979167,531.019532 328,531.080729 328,531.148438 L328,532.882812 L328,532.882812 L328,532.882812 Z M324,532 C324,531.447914 323.804689,530.976564 323.414062,530.585938 C323.023436,530.195311 322.552086,530 322,530 C321.447914,530 320.976564,530.195311 320.585938,530.585938 C320.195311,530.976564 320,531.447914 320,532 C320,532.552086 320.195311,533.023436 320.585938,533.414062 C320.976564,533.804689 321.447914,534 322,534 C322.552086,534 323.023436,533.804689 323.414062,533.414062 C323.804689,533.023436 324,532.552086 324,532 L324,532 L324,532 Z" id="icon-config"></path>
        </g>
    </g>
</svg>