<?xml version="1.0" encoding="UTF-8" standalone="no"?>
<svg width="8px" height="5px" viewBox="0 0 8 5" version="1.1" xmlns="http://www.w3.org/2000/svg" xmlns:xlink="http://www.w3.org/1999/xlink">
    <!-- Generator: Sketch 3.6.1 (26313) - http://www.bohemiancoding.com/sketch -->
    <title>carcet</title>
    <desc>Created with Sketch.</desc>
    <defs>
        <filter x="-50%" y="-50%" width="200%" height="200%" filterUnits="objectBoundingBox" id="filter-1">
            <feMorphology radius="2" in="SourceAlpha" operator="dilate" result="shadowSpreadOuter1"></feMorphology>
            <feOffset dx="0" dy="0" in="shadowSpreadOuter1" result="shadowOffsetOuter1"></feOffset>
            <feGaussianBlur stdDeviation="5" in="shadowOffsetOuter1" result="shadowBlurOuter1"></feGaussianBlur>
            <feColorMatrix values="0 0 0 0 0   0 0 0 0 0   0 0 0 0 0  0 0 0 0.0862715127 0" in="shadowBlurOuter1" type="matrix" result="shadowMatrixOuter1"></feColorMatrix>
            <feMerge>
                <feMergeNode in="shadowMatrixOuter1"></feMergeNode>
                <feMergeNode in="SourceGraphic"></feMergeNode>
            </feMerge>
        </filter>
        <filter x="-50%" y="-50%" width="200%" height="200%" filterUnits="objectBoundingBox" id="filter-2">
            <feOffset dx="0" dy="0" in="SourceAlpha" result="shadowOffsetOuter1"></feOffset>
            <feGaussianBlur stdDeviation="8" in="shadowOffsetOuter1" result="shadowBlurOuter1"></feGaussianBlur>
            <feColorMatrix values="0 0 0 0 0   0 0 0 0 0   0 0 0 0 0  0 0 0 0.028 0" in="shadowBlurOuter1" type="matrix" result="shadowMatrixOuter1"></feColorMatrix>
            <feMerge>
                <feMergeNode in="shadowMatrixOuter1"></feMergeNode>
                <feMergeNode in="SourceGraphic"></feMergeNode>
            </feMerge>
        </filter>
    </defs>
    <g id="Welcome" stroke="none" stroke-width="1" fill="none" fill-rule="evenodd">
        <g id="Login" transform="translate(-340.000000, -257.000000)">
            <rect id="Rectangle-60" fill-opacity="0.3" fill="#000000" x="0" y="0" width="1596" height="618"></rect>
            <g id="Group-8" transform="translate(46.000000, 168.000000)">
                <rect id="Rectangle-46" fill="#FFFFFF" filter="url(#filter-1)" x="0" y="0" width="334" height="306" rx="4"></rect>
                <g id="Group-5" transform="translate(20.000000, 53.000000)">
                    <g id="input-single-line" transform="translate(0.000000, 23.000000)">
                        <rect id="Rectangle-11" stroke="#DDDDDD" fill="#FFFFFF" filter="url(#filter-2)" x="56" y="0" width="238" height="32" rx="2"></rect>
                        <path d="M282,13.5 C282,13.6354173 281.950521,13.7526037 281.851562,13.8515625 L278.351562,17.3515625 C278.252604,17.4505213 278.135417,17.5 278,17.5 C277.864583,17.5 277.747396,17.4505213 277.648438,17.3515625 L274.148438,13.8515625 C274.049479,13.7526037 274,13.6354173 274,13.5 C274,13.3645827 274.049479,13.2473963 274.148438,13.1484375 C274.247396,13.0494787 274.364583,13 274.5,13 L281.5,13 C281.635417,13 281.752604,13.0494787 281.851562,13.1484375 C281.950521,13.2473963 282,13.3645827 282,13.5 L282,13.5 Z" id="carcet" fill="#9B9B9B"></path>
                    </g>
                </g>
            </g>
        </g>
    </g>
</svg>