<?xml version="1.0" encoding="UTF-8" standalone="no"?>
<svg width="10px" height="10px" viewBox="0 0 10 10" version="1.1" xmlns="http://www.w3.org/2000/svg" xmlns:xlink="http://www.w3.org/1999/xlink">
    <!-- Generator: Sketch 3.6.1 (26313) - http://www.bohemiancoding.com/sketch -->
    <title>icon_close_dark</title>
    <desc>Created with Sketch.</desc>
    <defs></defs>
    <g id="Page-1" stroke="none" stroke-width="1" fill="none" fill-rule="evenodd">
        <g id="icon_close_dark" transform="translate(-3.000000, -3.000000)" fill="#979797">
            <g id="Page-1">
                <path d="M13.2142857,8.5892854 C13.2142857,8.78273875 13.1465781,8.94717163 13.0111607,9.08258899 C12.8757434,9.21800629 12.7113105,9.28571399 12.5178571,9.28571399 L9.50000001,9.28571399 L9.50000001,12.3035711 C9.50000001,12.4970245 9.43229231,12.6614574 9.29687501,12.7968747 C9.16145771,12.932292 8.99702479,12.9999997 8.80357144,12.9999997 L7.4107143,12.9999997 C7.21726095,12.9999997 7.05282807,12.932292 6.91741072,12.7968747 C6.78199338,12.6614574 6.71428572,12.4970245 6.71428572,12.3035711 L6.71428572,9.28571399 L3.69642858,9.28571399 C3.50297523,9.28571399 3.33854235,9.21800629 3.20312501,9.08258899 C3.06770767,8.94717163 3.00000001,8.78273875 3.00000001,8.5892854 L3.00000001,7.19642826 C3.00000001,7.00297491 3.06770767,6.83854203 3.20312501,6.70312469 C3.33854235,6.56770735 3.50297523,6.49999969 3.69642858,6.49999969 L6.71428572,6.49999969 L6.71428572,3.48214255 C6.71428572,3.2886892 6.78199338,3.12425632 6.91741072,2.98883898 C7.05282807,2.85342163 7.21726095,2.78571398 7.4107143,2.78571398 L8.80357144,2.78571398 C8.99702479,2.78571398 9.16145771,2.85342163 9.29687501,2.98883898 C9.43229231,3.12425632 9.50000001,3.2886892 9.50000001,3.48214255 L9.50000001,6.49999969 L12.5178571,6.49999969 C12.7113105,6.49999969 12.8757434,6.56770735 13.0111607,6.70312469 C13.1465781,6.83854203 13.2142857,7.00297491 13.2142857,7.19642826 L13.2142857,8.5892854 L13.2142857,8.5892854 L13.2142857,8.5892854 Z" id="icon_remove" transform="translate(8.107143, 7.892857) rotate(45.000000) translate(-8.107143, -7.892857) "></path>
            </g>
        </g>
    </g>
</svg>