<?xml version="1.0" encoding="UTF-8" standalone="no"?>
<svg width="10px" height="10px" viewBox="0 0 10 10" version="1.1" xmlns="http://www.w3.org/2000/svg" xmlns:xlink="http://www.w3.org/1999/xlink" xmlns:sketch="http://www.bohemiancoding.com/sketch/ns">
    <!-- Generator: Sketch 3.5.2 (25235) - http://www.bohemiancoding.com/sketch -->
    <title>icon_remove</title>
    <desc>Created with Sketch.</desc>
    <defs></defs>
    <g id="Welcome" stroke="none" stroke-width="1" fill="none" fill-rule="evenodd" sketch:type="MSPage">
        <g id="Temp" sketch:type="MSArtboardGroup" transform="translate(-286.000000, -385.000000)" fill="#FFFFFF">
            <g id="Header-Copy-2" sketch:type="MSLayerGroup" transform="translate(0.000000, 362.000000)">
                <g id="Delete-Button" transform="translate(273.000000, 13.000000)" sketch:type="MSShapeGroup">
                    <g id="Group" transform="translate(9.000000, 6.000000)">
                        <path d="M14.2142857,9.58928571 C14.2142857,9.78273906 14.1465781,9.94717194 14.0111607,10.0825893 C13.8757434,10.2180066 13.7113105,10.2857143 13.5178571,10.2857143 L10.5,10.2857143 L10.5,13.3035714 C10.5,13.4970248 10.4322923,13.6614577 10.296875,13.796875 C10.1614577,13.9322923 9.99702478,14 9.80357143,14 L8.41071429,14 C8.21726094,14 8.05282806,13.9322923 7.91741071,13.796875 C7.78199337,13.6614577 7.71428571,13.4970248 7.71428571,13.3035714 L7.71428571,10.2857143 L4.69642857,10.2857143 C4.50297522,10.2857143 4.33854234,10.2180066 4.203125,10.0825893 C4.06770766,9.94717194 4,9.78273906 4,9.58928571 L4,8.19642857 C4,8.00297522 4.06770766,7.83854234 4.203125,7.703125 C4.33854234,7.56770766 4.50297522,7.5 4.69642857,7.5 L7.71428571,7.5 L7.71428571,4.48214286 C7.71428571,4.28868951 7.78199337,4.12425663 7.91741071,3.98883929 C8.05282806,3.85342194 8.21726094,3.78571429 8.41071429,3.78571429 L9.80357143,3.78571429 C9.99702478,3.78571429 10.1614577,3.85342194 10.296875,3.98883929 C10.4322923,4.12425663 10.5,4.28868951 10.5,4.48214286 L10.5,7.5 L13.5178571,7.5 C13.7113105,7.5 13.8757434,7.56770766 14.0111607,7.703125 C14.1465781,7.83854234 14.2142857,8.00297522 14.2142857,8.19642857 L14.2142857,9.58928571 Z" id="icon_remove" transform="translate(9.107143, 8.892857) rotate(-315.000000) translate(-9.107143, -8.892857) "></path>
                    </g>
                </g>
            </g>
        </g>
    </g>
</svg>